HIERARCHY
ROOT Hips
{
	OFFSET 0.00000 0.00000 0.00000
	CHANNELS 6 Xposition Yposition Zposition Zrotation Yrotation Xrotation 
	JOINT LHipJoint
	{
		OFFSET 0 0 0
		CHANNELS 3 Zrotation Yrotation Xrotation
		JOINT LeftUpLeg
		{
			OFFSET 1.64577 -1.42384 0.94276
			CHANNELS 3 Zrotation Yrotation Xrotation
			JOINT LeftLeg
			{
				OFFSET 2.11538 -5.81197 0.00000
				CHANNELS 3 Zrotation Yrotation Xrotation
				JOINT LeftFoot
				{
					OFFSET 2.36541 -6.49893 0.00000
					CHANNELS 3 Zrotation Yrotation Xrotation
					JOINT LeftToeBase
					{
						OFFSET 0.17759 -0.48793 1.73865
						CHANNELS 3 Zrotation Yrotation Xrotation
						End Site
						{
							OFFSET 0.00000 -0.00000 0.91205
						}
					}
				}
			}
		}
	}
	JOINT RHipJoint
	{
		OFFSET 0 0 0
		CHANNELS 3 Zrotation Yrotation Xrotation
		JOINT RightUpLeg
		{
			OFFSET -1.43750 -1.42384 0.94276
			CHANNELS 3 Zrotation Yrotation Xrotation
			JOINT RightLeg
			{
				OFFSET -2.10480 -5.78291 0.00000
				CHANNELS 3 Zrotation Yrotation Xrotation
				JOINT RightFoot
				{
					OFFSET -2.34880 -6.45329 0.00000
					CHANNELS 3 Zrotation Yrotation Xrotation
					JOINT RightToeBase
					{
						OFFSET -0.22842 -0.62757 1.80469
						CHANNELS 3 Zrotation Yrotation Xrotation
						End Site
						{
							OFFSET -0.00000 -0.00000 0.95886
						}
					}
				}
			}
		}
	}
	JOINT LowerBack
	{
		OFFSET 0 0 0
		CHANNELS 3 Zrotation Yrotation Xrotation
		JOINT Spine
		{
			OFFSET 0.06217 1.93758 -0.49272
			CHANNELS 3 Zrotation Yrotation Xrotation
			JOINT Spine1
			{
				OFFSET -0.03114 2.03621 -0.05830
				CHANNELS 3 Zrotation Yrotation Xrotation
				JOINT Neck
				{
					OFFSET 0 0 0
					CHANNELS 3 Zrotation Yrotation Xrotation
					JOINT Neck1
					{
						OFFSET 0.04421 1.41010 0.26562
						CHANNELS 3 Zrotation Yrotation Xrotation
						JOINT Head
						{
							OFFSET -0.13407 1.43847 0.06181
							CHANNELS 3 Zrotation Yrotation Xrotation
							End Site
							{
								OFFSET -0.04980 1.45844 -0.00689
							}
						}
					}
				}
				JOINT LeftShoulder
				{
					OFFSET 0 0 0
					CHANNELS 3 Zrotation Yrotation Xrotation
					JOINT LeftArm
					{
						OFFSET 2.18382 1.47753 -0.35694
						CHANNELS 3 Zrotation Yrotation Xrotation
						JOINT LeftForeArm
						{
							OFFSET 5.05460 -0.00000 0.00000
							CHANNELS 3 Zrotation Yrotation Xrotation
							JOINT LeftHand
							{
								OFFSET 3.39013 -0.00000 0.00000
								CHANNELS 3 Zrotation Yrotation Xrotation
								JOINT LeftFingerBase
								{
									OFFSET 0 0 0
									CHANNELS 3 Zrotation Yrotation Xrotation
									JOINT LeftHandIndex1
									{
										OFFSET 0.57242 -0.00000 -0.00000
										CHANNELS 3 Zrotation Yrotation Xrotation
										End Site
										{
											OFFSET 0.46150 -0.00000 -0.00000
										}
									}
								}
								JOINT LThumb
								{
									OFFSET 0 0 0
									CHANNELS 3 Zrotation Yrotation Xrotation
									End Site
									{
										OFFSET 0.46855 -0.00000 0.46855
									}
								}
							}
						}
					}
				}
				JOINT RightShoulder
				{
					OFFSET 0 0 0
					CHANNELS 3 Zrotation Yrotation Xrotation
					JOINT RightArm
					{
						OFFSET -2.06033 1.72839 -0.47437
						CHANNELS 3 Zrotation Yrotation Xrotation
						JOINT RightForeArm
						{
							OFFSET -5.07010 -0.00000 0.00000
							CHANNELS 3 Zrotation Yrotation Xrotation
							JOINT RightHand
							{
								OFFSET -3.14957 -0.00000 -0.00000
								CHANNELS 3 Zrotation Yrotation Xrotation
								JOINT RightFingerBase
								{
									OFFSET 0 0 0
									CHANNELS 3 Zrotation Yrotation Xrotation
									JOINT RightHandIndex1
									{
										OFFSET -0.71819 -0.00000 -0.00000
										CHANNELS 3 Zrotation Yrotation Xrotation
										End Site
										{
											OFFSET -0.57902 -0.00000 -0.00000
										}
									}
								}
								JOINT RThumb
								{
									OFFSET 0 0 0
									CHANNELS 3 Zrotation Yrotation Xrotation
									End Site
									{
										OFFSET -0.58786 -0.00000 0.58786
									}
								}
							}
						}
					}
				}
			}
		}
	}
}
MOTION
Frames: 12
Frame Time: .0083333
4.8904 15.4797 2.0238 0 0 0 0 0 0 -21 0 0 0 0 0 0 0 0 0 0 0 0 0 0 21 0 0 0 0 0 0 0 0 0 0 0 0 0 0 0 0 0 0 0 0 0 0 -16 0 0 21 0 0 11 0 0 0 -8 0 0 0 0 0 0 0 0 0 0 0 0 0 0 0 0 0 0 0 0 8 0 0 0 0 0 0 0 0 0 0 0 0 0 0 0 0 0
4.8904 15.4797 2.0238 -179.1670 -27.6957 176.9680 0.0000 0.0000 0.0000 -20.8825 -17.6443 5.8379 1.1515 6.8133 19.1633 0.1657 18.8496 -27.9675 0.1969 -2.8571 -7.8813 0.0000 0.0000 0.0000 23.4554 16.7773 3.9879 -1.2733 -7.1518 20.1659 -1.4899 -21.8952 -39.2397 -0.3541 3.8231 -10.5796 -0.8037 1.4762 5.3544 -1.4032 1.7129 4.2820 -1.0614 0.7586 1.4220 6.4467 2.4809 -4.6845 -0.7327 2.8523 5.1749 -1.2492 1.5080 2.5850 0.0000 -0.0000 0.0000 -84.8340 5.3810 25.6719 18.4611 -28.7436 -4.7689 -0.0000 0.0000 -0.0842 16.7952 10.8614 3.2552 -7.1250 0.0000 -0.0000 -9.1320 41.1410 0.8774 0.0000 -0.0000 0.0000 87.2503 -3.0624 33.4347 -18.3039 28.5446 -4.6936 0.0000 -0.0000 -16.0890 -15.6164 2.9135 -0.8140 7.1250 -0.0000 -0.0000 8.3814 -26.9311 3.7134
4.8894 15.4786 2.0206 -179.2180 -27.6911 176.9750 0.0000 0.0000 0.0000 -20.9334 -17.6257 5.8416 1.1527 6.8169 19.1740 0.1844 18.7939 -28.0362 0.1850 -2.7702 -7.6396 0.0000 0.0000 0.0000 23.4137 16.7570 4.0286 -1.2711 -7.1457 20.1476 -1.1473 -22.7278 -38.4382 -0.5645 4.8120 -13.3731 -0.8530 1.4573 5.3339 -1.4177 1.6864 4.2765 -1.0472 0.7445 1.4265 6.5760 2.4709 -4.7889 -0.9285 2.8337 5.3172 -1.3363 1.4986 2.6593 0.0000 -0.0000 0.0000 -85.0652 6.1017 25.5842 19.0393 -29.4674 -5.0501 -0.0000 -0.0000 0.0646 22.4208 8.0252 3.2967 -7.1250 0.0000 -0.0000 -3.8241 38.6254 0.6015 0.0000 -0.0000 0.0000 87.1043 -2.9324 33.5410 -17.8696 27.9898 -4.4879 0.0000 -0.0000 -15.3732 -15.1863 4.7127 -1.2775 7.1250 -0.0000 -0.0000 8.5957 -25.0927 4.1840
4.8904 15.4778 2.0201 -178.9900 -27.6631 176.8480 0.0000 0.0000 0.0000 -20.7043 -17.6101 5.7873 1.1655 6.8533 19.2815 0.1922 18.7548 -28.0435 0.1967 -2.8562 -7.8788 0.0000 0.0000 0.0000 23.6617 16.7807 4.1098 -1.2596 -7.1145 20.0550 -1.1234 -22.8149 -38.4141 -0.5648 4.8136 -13.3776 -0.6855 1.3979 5.3903 -1.3529 1.6155 4.2440 -1.0733 0.7136 1.3635 6.6279 2.4982 -4.7587 -1.0677 2.8782 5.3454 -1.3896 1.5187 2.6697 0.0000 -0.0000 0.0000 -85.1157 6.7290 25.8613 19.5055 -30.0420 -5.2815 -0.0000 0.0000 -0.2970 22.8537 7.7567 3.2557 -7.1250 0.0000 -0.0000 -3.4245 38.3674 0.5601 0.0000 -0.0000 0.0000 87.0486 -2.8838 34.5904 -18.0985 28.2831 -4.5958 0.0000 -0.0000 -16.7819 -16.4228 2.8103 -0.8279 7.1250 -0.0000 -0.0000 7.7746 -27.0292 3.4216
4.8925 15.4780 2.0194 -178.8550 -27.6692 176.8010 0.0000 0.0000 0.0000 -20.5442 -17.5790 5.7131 1.1729 6.8743 19.3436 0.1921 18.7318 -28.0136 0.2179 -3.0051 -8.2931 0.0000 0.0000 0.0000 23.8140 16.8061 4.1097 -1.2523 -7.0947 19.9962 -1.0454 -23.0765 -38.3129 -0.6129 5.0105 -13.9386 -0.6047 1.3378 5.3655 -1.3047 1.5410 4.2364 -1.0655 0.6786 1.3692 6.8172 2.5214 -4.8209 -1.3909 2.9132 5.4406 -1.5282 1.5330 2.7277 -0.0000 0.0000 0.0000 -85.0577 7.1683 26.3620 19.8617 -30.4754 -5.4610 -0.0000 0.0000 -0.7847 18.3263 10.6539 3.5042 -7.1250 0.0000 -0.0000 -7.7536 41.0659 0.7574 -0.0000 0.0000 0.0000 87.0185 -2.6140 35.0131 -17.8721 27.9930 -4.4890 0.0000 -0.0000 -16.8662 -16.5093 2.4264 -0.7189 7.1250 -0.0000 -0.0000 7.7324 -27.4250 3.3301
4.8927 15.4785 2.0187 -178.8610 -27.6384 176.7990 0.0000 0.0000 0.0000 -20.5500 -17.5930 5.7062 1.1801 6.8946 19.4036 0.1956 18.7592 -28.0756 0.2167 -2.9967 -8.2696 0.0000 0.0000 0.0000 23.8254 16.8289 4.1349 -1.2450 -7.0749 19.9374 -0.9548 -23.3398 -38.1540 -0.6759 5.2569 -14.6427 -0.5640 1.3488 5.3533 -1.3177 1.5582 4.2261 -1.1021 0.6886 1.3671 7.0605 2.5013 -4.9133 -1.7384 2.8845 5.5921 -1.6882 1.5164 2.8100 -0.0000 -0.0000 0.0000 -84.9377 7.5391 26.9316 20.1023 -30.7654 -5.5836 -0.0000 0.0000 -1.0259 18.1295 10.6667 3.4681 -7.1250 0.0000 -0.0000 -7.9284 41.0612 0.7756 -0.0000 -0.0000 0.0000 87.0688 -2.3415 35.2942 -17.6240 27.6730 -4.3732 0.0000 -0.0000 -16.9734 -16.3705 1.9793 -0.5813 7.1250 -0.0000 -0.0000 7.8679 -27.8876 3.3028
4.8925 15.4778 2.0183 -178.8140 -27.5224 176.7510 0.0000 0.0000 0.0000 -20.5314 -17.6400 5.7970 1.1789 6.8913 19.3937 0.2092 18.8084 -28.2408 0.1940 -2.8363 -7.8233 0.0000 0.0000 0.0000 23.8926 16.8935 4.2019 -1.2448 -7.0743 19.9358 -1.0235 -23.1138 -38.2450 -0.6218 5.0461 -14.0401 -0.5306 1.3599 5.3835 -1.3075 1.5737 4.2197 -1.1117 0.6970 1.3446 7.2140 2.5050 -4.9628 -1.9572 2.8890 5.6822 -1.7886 1.5170 2.8597 0.0000 0.0000 0.0000 -84.7131 7.7471 27.5090 20.2067 -30.8906 -5.6371 -0.0000 0.0000 -1.3456 17.9156 10.5718 3.3945 -7.1250 0.0000 -0.0000 -8.0982 40.9438 0.8161 0.0000 0.0000 0.0000 87.1566 -2.0735 35.4431 -17.3482 27.3145 -4.2459 0.0000 -0.0000 -16.7372 -15.8575 1.8717 -0.5316 7.1250 -0.0000 -0.0000 8.2693 -28.0004 3.4522
4.8932 15.4776 2.0162 -178.8400 -27.3893 176.7600 0.0000 0.0000 0.0000 -20.5760 -17.6456 5.8863 1.1727 6.8736 19.3414 0.2136 18.8792 -28.3652 0.1744 -2.6897 -7.4161 0.0000 0.0000 0.0000 23.8728 16.9070 4.1750 -1.2490 -7.0857 19.9696 -1.0074 -23.0850 -38.1329 -0.6251 5.0594 -14.0782 -0.6661 1.3359 5.4098 -1.2865 1.5365 4.1960 -1.0136 0.6754 1.3006 7.2219 2.5449 -4.9274 -2.0239 2.9496 5.6819 -1.8099 1.5455 2.8581 -0.0000 -0.0000 0.0000 -84.5215 7.8541 27.7967 20.2398 -30.9301 -5.6541 -0.0000 0.0000 -1.7079 17.6544 10.5178 3.3249 -7.1250 0.0000 -0.0000 -8.3166 40.8645 0.8548 -0.0000 -0.0000 0.0000 87.2400 -1.8848 35.5625 -17.1350 27.0355 -4.1485 0.0000 -0.0000 -16.3568 -15.3997 2.1532 -0.5929 7.1250 -0.0000 -0.0000 8.5996 -27.7130 3.6520
4.8937 15.4781 2.0143 -178.9230 -27.3029 176.8100 0.0000 0.0000 0.0000 -20.6636 -17.6155 5.9254 1.1681 6.8605 19.3028 0.1913 19.0074 -28.3657 0.1710 -2.6639 -7.3445 0.0000 0.0000 0.0000 23.7767 16.8502 4.0904 -1.2512 -7.0917 19.9874 -0.8745 -23.3659 -37.7795 -0.7199 5.4220 -15.1161 -0.7825 1.3473 5.3836 -1.3097 1.5469 4.1956 -0.9721 0.6780 1.3123 7.1822 2.5156 -4.8876 -2.0138 2.9164 5.6316 -1.8008 1.5279 2.8304 0.0000 -0.0000 0.0000 -84.4545 7.8783 27.7321 20.2051 -30.8887 -5.6363 -0.0000 0.0000 -1.7590 17.4619 10.3938 3.2482 -7.1250 0.0000 -0.0000 -8.4619 40.7195 0.9005 0.0000 -0.0000 0.0000 87.4014 -1.7482 35.5125 -17.0306 26.8980 -4.1012 0.0000 -0.0000 -16.0984 -15.3264 2.2446 -0.6150 7.1250 -0.0000 -0.0000 8.6490 -27.6196 3.6927
4.8947 15.4792 2.0130 -178.9800 -27.2564 176.8860 0.0000 0.0000 0.0000 -20.7030 -17.6072 5.8918 1.1648 6.8512 19.2754 0.1745 19.0930 -28.3527 0.1838 -2.7611 -7.6143 0.0000 0.0000 0.0000 23.6915 16.8221 4.0259 -1.2511 -7.0914 19.9865 -0.9334 -23.1230 -37.8032 -0.6847 5.2905 -14.7391 -0.8548 1.3712 5.3244 -1.3317 1.5777 4.1864 -0.9543 0.6924 1.3347 7.1805 2.4571 -4.8882 -2.0339 2.8402 5.6245 -1.8105 1.4893 2.8245 -0.0000 0.0000 0.0000 -84.4494 7.8571 27.5121 20.0885 -30.7488 -5.5765 -0.0000 0.0000 -1.6140 17.3722 10.1059 3.1421 -7.1250 0.0000 -0.0000 -8.4876 40.4148 0.9675 -0.0000 0.0000 0.0000 87.5948 -1.6387 35.3889 -16.9802 26.8317 -4.0784 0.0000 -0.0000 -15.9227 -15.4973 2.0592 -0.5708 7.1250 -0.0000 -0.0000 8.5319 -27.8090 3.6031
4.8958 15.4814 2.0106 -178.9080 -27.2179 176.9520 0.0000 0.0000 0.0000 -20.5888 -17.6184 5.7980 1.1619 6.8431 19.2513 0.1907 19.0339 -28.3961 0.1902 -2.8085 -7.7461 0.0000 0.0000 0.0000 23.7333 16.8641 3.9470 -1.2499 -7.0882 19.9769 -1.0218 -22.8330 -37.9265 -0.6223 5.0482 -14.0460 -0.8234 1.3938 5.2165 -1.3114 1.6148 4.1617 -0.9503 0.7131 1.3699 7.1982 2.4178 -4.9585 -2.0599 2.7823 5.6917 -1.8248 1.4610 2.8588 0.0000 0.0000 0.0000 -84.4293 7.7457 27.2797 19.8902 -30.5098 -5.4755 -0.0000 0.0000 -1.4260 17.0391 10.0158 3.0511 -7.1250 0.0000 -0.0000 -8.7603 40.2935 1.0255 0.0000 0.0000 0.0000 87.7831 -1.5391 35.2524 -16.9589 26.8036 -4.0688 0.0000 -0.0000 -15.8327 -15.6280 1.9809 -0.5540 7.1250 -0.0000 -0.0000 8.4375 -27.8889 3.5463
4.8963 15.4827 2.0091 -178.7830 -27.2009 176.9660 0.0000 0.0000 0.0000 -20.4409 -17.6527 5.7443 1.1605 6.8390 19.2392 0.2150 18.9503 -28.4670 0.1812 -2.7418 -7.5607 0.0000 0.0000 0.0000 23.8476 16.9201 3.9012 -1.2468 -7.0797 19.9517 -1.0012 -22.8967 -37.8933 -0.6326 5.0892 -14.1630 -0.7616 1.4048 5.1642 -1.2632 1.6365 4.1272 -0.9353 0.7267 1.3639 7.1582 2.3949 -5.0398 -2.0084 2.7435 5.8065 -1.8021 1.4436 2.9089 0.0000 -0.0000 0.0000 -84.4543 7.6255 26.9925 19.6571 -30.2270 -5.3577 -0.0000 0.0000 -1.2065 16.5984 10.3199 3.0567 -7.1250 0.0000 -0.0000 -9.1993 40.5683 1.0150 0.0000 -0.0000 0.0000 87.9304 -1.4756 35.1546 -16.9598 26.8048 -4.0692 0.0000 -0.0000 -15.9116 -15.6216 2.0738 -0.5797 7.1250 -0.0000 -0.0000 8.4356 -27.7935 3.5647
